<?xml version="1.0" encoding="UTF-8" standalone="no"?>
<!-- Generator: Adobe Illustrator 16.0.0, SVG Export Plug-In . SVG Version: 6.00 Build 0)  -->

<svg
   xmlns:dc="http://purl.org/dc/elements/1.1/"
   xmlns:cc="http://creativecommons.org/ns#"
   xmlns:rdf="http://www.w3.org/1999/02/22-rdf-syntax-ns#"
   xmlns:svg="http://www.w3.org/2000/svg"
   xmlns="http://www.w3.org/2000/svg"
   xmlns:sodipodi="http://sodipodi.sourceforge.net/DTD/sodipodi-0.dtd"
   xmlns:inkscape="http://www.inkscape.org/namespaces/inkscape"
   version="1.1"
   id="Capa_1"
   x="0px"
   y="0px"
   width="635.477px"
   height="635.477px"
   viewBox="0 0 635.477 635.477"
   style="enable-background:new 0 0 635.477 635.477;"
   xml:space="preserve"
   sodipodi:docname="inFridge.svg"
   inkscape:version="0.92.4 (f8dce91, 2019-08-02)"
   inkscape:export-filename="/home/christophe/dev/ReactNative/FrigoStock/assets/inFridge.png"
   inkscape:export-xdpi="19"
   inkscape:export-ydpi="19"><metadata
   id="metadata49"><rdf:RDF><cc:Work
       rdf:about=""><dc:format>image/svg+xml</dc:format><dc:type
         rdf:resource="http://purl.org/dc/dcmitype/StillImage" /><dc:title /></cc:Work></rdf:RDF></metadata><defs
   id="defs47" /><sodipodi:namedview
   pagecolor="#ffffff"
   bordercolor="#666666"
   borderopacity="1"
   objecttolerance="10"
   gridtolerance="10"
   guidetolerance="10"
   inkscape:pageopacity="0"
   inkscape:pageshadow="2"
   inkscape:window-width="1301"
   inkscape:window-height="714"
   id="namedview45"
   showgrid="false"
   inkscape:zoom="1.0504059"
   inkscape:cx="7.636038"
   inkscape:cy="315.2752"
   inkscape:window-x="65"
   inkscape:window-y="1106"
   inkscape:window-maximized="1"
   inkscape:current-layer="g4588" />
<g
   id="g12">
	<g
   id="g10">
		<path
   d="M513.804,570.147c0,19.138-17.223,34.658-38.432,34.658H160.663c-21.238,0-38.465-15.53-38.465-34.658V273.949h391.596    v296.199H513.804z M91.469,243.798v350.641c0,22.678,19.916,41.038,44.441,41.038h363.667c24.524,0,44.44-18.36,44.44-41.038    V243.798H91.469L91.469,243.798z"
   id="path2" />
		<path
   d="M514.436,181.036H121.041V64.508c0-18.56,17.31-33.608,38.64-33.608H475.79c21.336,0,38.646,15.049,38.646,33.608V181.036    L514.436,181.036z M499.558,0H135.9c-24.535,0-44.441,21.341-44.441,47.66v165.268h452.539V47.65    C543.998,21.331,524.082,0,499.558,0L499.558,0z"
   id="path4" />
		<path
   d="M197.32,138.516c0,7.697-6.9,13.921-15.423,13.921l0,0c-8.504,0-15.413-6.224-15.413-13.921V76.051    c0-7.688,6.89-13.911,15.413-13.911l0,0c8.514,0,15.423,6.224,15.423,13.911V138.516L197.32,138.516z"
   id="path6" />
		<path
   d="M197.32,420.993c0,10.162-6.9,18.457-15.423,18.457l0,0c-8.504,0-15.413-8.266-15.413-18.457v-82.697    c0-10.172,6.89-18.447,15.413-18.447l0,0c8.514,0,15.423,8.256,15.423,18.447V420.993L197.32,420.993z"
   id="path8" />
	</g>
</g>
<g
   id="g14">
</g>
<g
   id="g16">
</g>
<g
   id="g18">
</g>
<g
   id="g20">
</g>
<g
   id="g22">
</g>
<g
   id="g24">
</g>
<g
   id="g26">
</g>
<g
   id="g28">
</g>
<g
   id="g30">
</g>
<g
   id="g32">
</g>
<g
   id="g34">
</g>
<g
   id="g36">
</g>
<g
   id="g38">
</g>
<g
   id="g40">
</g>
<g
   id="g42">
</g>
<g
   id="g4588"
   transform="matrix(1.1876653,0,0,1.1876653,-35.505081,-33.448146)"><text
   id="text860"
   y="435.2005"
   x="147.95622"
   style="font-style:normal;font-variant:normal;font-weight:bold;font-stretch:normal;font-size:498.23410034px;line-height:1.25;font-family:FreeMono;-inkscape-font-specification:'FreeMono, Bold';font-variant-ligatures:normal;font-variant-caps:normal;font-variant-numeric:normal;font-feature-settings:normal;text-align:start;letter-spacing:0px;word-spacing:0px;writing-mode:lr-tb;text-anchor:start;fill:#0d47a1;fill-opacity:1;stroke:none;stroke-width:12.45591068;"
   xml:space="preserve"><tspan
     style="font-style:normal;font-variant:normal;font-weight:bold;font-stretch:normal;font-size:498.23410034px;font-family:FreeMono;-inkscape-font-specification:'FreeMono, Bold';font-variant-ligatures:normal;font-variant-caps:normal;font-variant-numeric:normal;font-feature-settings:normal;text-align:start;writing-mode:lr-tb;text-anchor:start;fill:#0d47a1;stroke-width:12.45591068;fill-opacity:1;"
     y="435.2005"
     x="147.95622"
     id="tspan858"
     sodipodi:role="line">+</tspan></text>

</g></svg>