<?xml version="1.0" standalone="no"?>
<!DOCTYPE svg PUBLIC "-//W3C//DTD SVG 20010904//EN"
 "http://www.w3.org/TR/2001/REC-SVG-20010904/DTD/svg10.dtd">
<svg version="1.0" xmlns="http://www.w3.org/2000/svg"
 width="740.000000pt" height="1280.000000pt" viewBox="0 0 740.000000 1280.000000"
 preserveAspectRatio="xMidYMid meet">
<metadata>
Created by potrace 1.15, written by Peter Selinger 2001-2017
</metadata>
<g transform="translate(0.000000,1280.000000) scale(0.100000,-0.100000)"
fill="#000000" stroke="none">
<path d="M4525 12793 c-11 -2 -99 -30 -195 -62 -96 -32 -230 -75 -298 -95 -68
-20 -162 -55 -210 -78 -94 -44 -377 -147 -647 -235 -93 -30 -204 -70 -245 -89
-111 -49 -283 -111 -680 -246 -195 -67 -386 -134 -425 -150 -38 -16 -140 -53
-225 -83 -258 -89 -840 -317 -1171 -460 -147 -64 -268 -105 -308 -105 -61 0
-120 -71 -121 -145 0 -16 20 -97 45 -180 57 -192 211 -869 235 -1030 6 -38 24
-135 40 -215 17 -80 37 -188 46 -240 8 -52 28 -156 44 -230 46 -208 68 -346
95 -606 25 -241 59 -469 95 -644 11 -52 24 -129 29 -170 4 -41 20 -136 34
-210 25 -131 57 -371 77 -575 5 -55 14 -115 19 -133 9 -30 13 -93 10 -147 -1
-11 13 -130 30 -265 45 -358 47 -371 75 -533 14 -82 26 -165 26 -186 0 -40 32
-230 55 -326 19 -81 62 -361 70 -460 4 -44 11 -100 16 -124 6 -24 18 -132 29
-240 10 -108 35 -284 54 -391 19 -107 39 -249 46 -315 6 -66 24 -237 40 -380
16 -143 39 -343 50 -445 12 -102 30 -228 41 -280 21 -105 61 -352 115 -715 53
-363 61 -388 125 -405 57 -16 71 -44 80 -160 5 -63 15 -116 28 -144 47 -107
137 -251 194 -312 53 -57 220 -196 313 -261 28 -20 163 -132 295 -244 30 -26
135 -99 234 -163 121 -79 205 -141 255 -191 85 -83 143 -125 174 -125 11 0 59
18 106 39 47 22 157 69 245 105 88 35 203 83 255 106 52 23 257 112 454 197
197 85 402 174 455 199 163 77 645 275 896 369 55 21 233 98 395 172 433 198
900 393 1009 423 25 6 110 43 190 81 l146 69 8 117 c8 119 4 278 -7 343 -9 46
19 92 78 127 36 22 46 34 51 63 3 19 1 159 -5 310 -10 289 -18 357 -88 685
-38 176 -52 314 -51 480 1 81 -4 162 -14 215 -8 47 -18 161 -22 253 -4 92 -16
229 -26 305 -15 106 -22 233 -29 556 -5 231 -14 526 -20 655 -5 130 -10 331
-10 446 1 426 -21 1139 -41 1375 -26 309 -25 478 3 649 27 166 20 227 -36 314
-33 51 -46 62 -112 93 -62 30 -74 39 -74 60 0 15 6 24 16 24 28 0 73 33 85 63
15 36 -4 448 -26 572 -28 155 -52 407 -89 955 -8 113 -22 257 -30 320 -9 63
-23 203 -31 310 -8 107 -19 211 -25 230 -5 19 -16 107 -24 196 -9 92 -25 190
-36 228 l-21 66 -77 39 c-42 21 -151 70 -242 109 -192 81 -243 105 -405 194
-304 166 -508 269 -600 303 -55 20 -156 66 -225 102 -351 184 -552 283 -572
282 -13 -1 -32 -3 -43 -6z m85 -246 c52 -24 155 -78 228 -119 73 -42 194 -102
269 -133 74 -32 159 -74 187 -93 66 -44 488 -270 585 -312 40 -17 126 -58 190
-90 135 -67 217 -102 284 -120 26 -7 47 -16 47 -21 0 -9 -88 -37 -425 -134
-247 -71 -945 -299 -1060 -346 -38 -16 -101 -40 -140 -53 -38 -13 -185 -66
-325 -119 -140 -52 -322 -118 -405 -147 -82 -28 -175 -60 -205 -70 -30 -11
-127 -39 -215 -64 -177 -49 -521 -166 -630 -213 -38 -17 -149 -56 -245 -88
-96 -32 -224 -78 -285 -103 -155 -63 -183 -62 -390 16 -88 33 -194 76 -235 95
-41 19 -140 58 -220 87 -80 29 -220 88 -312 131 -91 43 -169 79 -173 79 -4 0
-75 33 -158 74 -137 67 -197 93 -461 202 -43 18 -83 37 -88 42 -14 14 43 42
321 159 315 133 390 162 611 238 107 37 262 96 343 131 82 35 228 89 325 120
98 31 247 82 332 114 85 32 202 73 260 93 58 19 197 71 310 114 113 44 250 95
305 113 142 46 629 223 760 275 61 24 191 72 290 105 99 34 186 66 195 70 23
14 29 13 130 -33z m1893 -1024 c9 -17 22 -71 28 -119 6 -49 18 -105 25 -124 9
-20 11 -36 5 -38 -6 -2 -6 -15 0 -35 6 -18 14 -129 18 -247 5 -118 12 -222 15
-230 6 -17 24 -231 31 -374 3 -54 8 -103 11 -108 4 -6 8 -56 9 -112 1 -55 10
-143 20 -195 9 -53 14 -109 10 -131 -4 -25 -1 -55 10 -87 13 -38 15 -67 10
-138 -5 -74 -3 -104 14 -170 12 -43 21 -108 21 -144 0 -66 13 -198 26 -258 5
-26 2 -36 -19 -57 -15 -14 -37 -26 -49 -26 -15 0 -41 -17 -68 -46 -25 -25 -63
-56 -85 -69 -46 -27 -240 -104 -365 -145 -155 -51 -440 -159 -805 -304 -198
-79 -400 -159 -450 -178 -49 -20 -124 -49 -165 -66 -41 -17 -122 -47 -180 -68
-58 -20 -157 -61 -220 -89 -63 -29 -167 -69 -230 -90 -63 -20 -151 -52 -195
-70 -44 -18 -141 -54 -215 -80 -74 -26 -162 -59 -195 -73 -190 -79 -823 -282
-880 -282 -17 0 -39 12 -60 33 -40 40 -55 102 -55 225 0 49 -5 146 -10 218 -6
71 -15 206 -21 299 -5 94 -16 238 -24 320 -8 83 -21 278 -29 435 -8 157 -29
407 -45 555 -32 283 -49 575 -37 638 10 52 59 105 104 113 20 3 69 21 108 39
39 19 116 47 170 63 55 16 178 61 274 99 199 80 524 191 650 223 142 36 509
165 770 270 85 35 220 84 300 111 80 26 237 80 350 119 113 40 248 84 300 100
52 15 185 57 295 93 110 36 243 80 295 97 52 17 147 42 210 57 63 14 153 38
200 53 47 15 89 27 95 26 5 -2 18 -16 28 -33z m-6008 -631 c68 -34 161 -75
207 -93 45 -17 189 -81 318 -142 320 -150 437 -199 560 -237 58 -18 135 -48
172 -67 66 -34 67 -36 77 -86 6 -29 18 -110 27 -182 8 -71 20 -146 25 -166 13
-51 36 -235 44 -349 4 -52 15 -149 25 -215 10 -66 24 -154 30 -196 6 -42 13
-164 15 -270 2 -107 8 -215 14 -240 21 -90 67 -689 75 -979 1 -25 10 -63 20
-85 10 -22 25 -85 32 -140 8 -55 21 -143 29 -195 65 -415 97 -611 105 -648 6
-23 19 -106 30 -185 11 -78 24 -171 29 -207 5 -36 12 -144 16 -240 4 -96 15
-227 25 -290 10 -63 21 -168 25 -234 3 -65 10 -141 16 -170 5 -28 16 -112 25
-186 8 -74 28 -216 44 -315 26 -160 68 -506 85 -700 15 -176 90 -707 130 -925
33 -182 50 -294 74 -490 12 -91 32 -223 46 -293 14 -71 25 -150 25 -175 0 -26
9 -90 21 -142 20 -96 30 -184 49 -450 6 -80 20 -217 31 -305 11 -88 24 -205
29 -260 5 -55 19 -134 30 -175 33 -119 36 -144 18 -137 -18 6 -176 127 -348
266 -63 51 -144 110 -180 131 -36 21 -103 69 -150 107 -47 38 -107 84 -135
103 -27 19 -79 57 -115 85 -36 29 -111 82 -166 118 -66 43 -129 96 -182 151
-79 84 -80 86 -87 148 -9 86 -50 400 -75 583 -11 83 -25 197 -31 255 -5 58
-19 145 -30 193 -11 49 -24 124 -29 167 -5 44 -14 89 -21 101 -8 15 -9 55 -4
129 6 94 4 114 -15 170 -16 48 -23 104 -30 234 -8 145 -15 193 -46 316 -32
127 -37 167 -44 320 -5 113 -15 212 -29 280 -12 58 -26 179 -32 270 -10 173
-26 285 -58 408 -11 41 -25 133 -31 205 -7 73 -22 173 -35 222 -13 50 -27 110
-30 135 -4 25 -15 72 -25 105 -11 33 -24 103 -30 155 -6 52 -24 158 -40 236
-16 77 -32 172 -35 210 -6 63 -33 246 -85 569 -10 66 -21 161 -24 210 -3 50
-24 191 -46 315 -22 124 -42 239 -45 255 -3 17 -9 91 -14 166 -11 151 -30 256
-96 522 -25 99 -47 202 -51 230 -12 108 -86 579 -115 737 -61 336 -68 378 -88
505 -28 180 -30 198 -41 385 -8 143 -15 189 -55 348 -25 101 -45 186 -45 189
0 3 21 3 46 0 27 -3 95 -29 169 -65z m1534 -662 c60 -22 120 -40 134 -40 14 0
38 -10 53 -23 l26 -23 3 -174 c1 -98 9 -217 18 -270 8 -52 20 -160 27 -240 6
-80 15 -169 20 -198 5 -29 16 -175 25 -325 8 -149 22 -335 31 -413 8 -77 12
-152 9 -166 -4 -14 -2 -43 4 -64 7 -22 18 -160 26 -309 8 -148 16 -309 19
-357 3 -49 1 -88 -3 -88 -15 0 -97 60 -152 112 -69 65 -75 87 -84 328 -3 91
-12 219 -20 285 -8 66 -19 176 -25 245 -6 69 -15 150 -21 180 -5 30 -14 147
-19 260 -7 149 -17 252 -39 375 -16 94 -39 258 -51 365 -17 157 -63 423 -97
558 -3 12 -3 22 1 22 3 0 55 -18 115 -40z m4671 -1536 c0 -17 -41 -36 -120
-54 -30 -7 -76 -23 -101 -36 -25 -12 -95 -39 -155 -59 -60 -21 -127 -46 -149
-57 -68 -34 -287 -124 -345 -143 -30 -10 -68 -25 -85 -33 -29 -14 -278 -111
-450 -174 -44 -16 -114 -45 -155 -65 -76 -36 -222 -90 -450 -168 -69 -24 -154
-59 -190 -78 -36 -19 -135 -62 -220 -95 -85 -33 -240 -94 -345 -135 -104 -41
-201 -78 -215 -82 -14 -4 -62 -23 -107 -41 -46 -18 -108 -38 -139 -43 -31 -6
-129 -40 -218 -75 -88 -35 -240 -90 -336 -121 -96 -31 -213 -70 -260 -86 -47
-17 -89 -31 -95 -32 -5 -1 -14 22 -19 50 -12 72 -1 83 78 83 34 0 85 6 112 14
27 8 67 17 89 21 45 7 98 25 265 85 63 23 166 58 229 76 62 19 147 50 187 69
41 20 136 56 212 82 75 25 157 55 182 65 60 26 344 133 395 148 22 7 74 30
116 51 42 21 117 51 165 68 92 30 161 58 324 131 52 23 120 50 150 60 30 10
168 63 306 118 348 139 508 199 729 272 105 35 206 71 225 80 19 10 55 25 80
33 25 9 88 32 140 51 104 38 170 46 170 20z m103 -129 c22 -22 30 -178 32
-605 1 -206 7 -512 14 -680 8 -168 15 -334 16 -370 1 -36 7 -92 13 -125 7 -33
14 -175 17 -315 4 -140 12 -365 20 -500 8 -135 19 -447 25 -695 6 -247 17
-522 26 -610 8 -88 14 -187 13 -220 -4 -105 12 -497 22 -565 6 -36 12 -132 15
-215 11 -466 15 -532 43 -710 48 -296 56 -365 56 -467 0 -82 -3 -101 -21 -125
-27 -37 -32 -39 -289 -137 -222 -84 -454 -182 -665 -281 -63 -30 -178 -79
-255 -109 -200 -78 -384 -156 -505 -214 -58 -27 -193 -88 -300 -135 -107 -46
-328 -147 -490 -222 -162 -76 -333 -154 -380 -175 -47 -21 -143 -65 -215 -98
-136 -63 -611 -255 -656 -266 l-27 -6 -51 208 c-52 214 -82 380 -101 562 -6
58 -18 146 -25 195 -8 50 -22 180 -30 290 -9 110 -24 236 -35 280 -20 82 -34
184 -45 315 -8 101 -32 321 -55 510 -11 85 -29 236 -40 335 -25 220 -34 278
-70 471 -16 83 -41 236 -55 340 -14 103 -32 218 -40 254 -7 36 -18 135 -24
220 -32 449 -41 613 -41 733 0 72 -5 175 -10 227 -5 52 -14 161 -19 242 -10
135 -39 389 -61 533 -24 155 -42 352 -43 470 l-2 130 200 51 c110 28 225 61
255 73 30 13 112 43 181 66 69 24 141 53 161 64 19 12 86 32 149 46 63 14 139
39 170 55 31 16 76 34 100 40 24 6 107 38 184 70 77 32 185 75 239 96 55 20
154 61 220 91 178 81 270 117 476 188 296 101 433 157 458 188 7 8 25 14 41
15 16 0 67 17 113 36 45 20 164 67 263 105 99 37 268 104 375 148 107 44 217
85 244 92 26 6 91 30 145 52 150 63 238 81 264 54z m-4452 -1152 c39 -37 75
-76 81 -87 7 -12 15 -88 20 -171 18 -353 26 -474 32 -483 7 -12 82 -625 95
-782 6 -69 15 -222 21 -340 6 -118 12 -244 15 -280 3 -36 10 -164 16 -285 10
-220 40 -524 60 -613 6 -26 15 -85 20 -132 12 -111 65 -449 89 -570 17 -87 30
-189 45 -360 3 -36 12 -112 21 -169 16 -112 61 -527 70 -656 5 -57 3 -77 -4
-70 -19 18 -52 176 -63 305 -6 69 -24 194 -40 277 -16 84 -29 168 -29 185 0
18 -9 76 -20 128 -10 52 -26 147 -35 210 -8 63 -26 194 -40 290 -13 96 -27
207 -30 245 -3 39 -10 99 -16 135 -5 36 -11 115 -13 175 -1 61 -10 139 -19
175 -9 36 -30 178 -47 315 -17 138 -43 321 -56 408 -14 87 -27 217 -30 289 -2
72 -11 171 -19 222 -8 50 -19 172 -25 271 -6 99 -22 239 -35 310 -13 72 -38
227 -55 345 -17 118 -37 240 -45 270 -8 30 -15 72 -15 94 0 21 -11 93 -24 160
-54 273 -55 287 -15 265 11 -5 51 -40 90 -76z m599 -5061 c0 -15 -2 -15 -10
-2 -13 20 -13 33 0 25 6 -3 10 -14 10 -23z m28 -202 c7 -41 14 -106 17 -145 4
-62 2 -55 -20 55 -13 69 -24 141 -24 160 0 54 15 16 27 -70z m4099 -42 c2 -46
0 -111 -3 -145 l-6 -62 -166 -93 c-164 -91 -373 -188 -542 -250 -47 -17 -125
-49 -175 -71 -49 -22 -155 -64 -234 -94 -141 -52 -193 -77 -446 -215 -89 -49
-143 -71 -210 -87 -128 -31 -154 -41 -405 -161 -124 -60 -272 -125 -330 -145
-140 -49 -306 -110 -410 -150 -47 -19 -130 -50 -185 -71 -55 -20 -194 -78
-310 -129 -115 -51 -235 -100 -265 -110 -70 -22 -129 -52 -157 -77 -30 -28
-47 -18 -60 33 -6 24 -23 77 -38 117 -14 40 -23 81 -20 91 4 14 62 38 218 91
228 78 492 188 677 280 63 32 144 70 179 84 35 15 80 37 100 50 20 12 133 67
251 120 118 54 285 131 370 171 85 40 224 101 308 134 85 34 181 75 215 92 33
17 131 59 216 94 86 34 203 83 261 107 196 84 415 175 465 193 28 10 90 38
139 62 87 44 521 217 556 222 3 1 6 -36 7 -81z m-4062 -198 c3 -5 1 -10 -4
-10 -6 0 -11 5 -11 10 0 6 2 10 4 10 3 0 8 -4 11 -10z m25 -256 c22 -207 45
-380 60 -444 5 -25 17 -97 25 -161 9 -64 26 -159 39 -213 17 -71 20 -96 11
-96 -7 0 -15 10 -18 23 -3 12 -17 55 -31 96 -35 102 -90 535 -112 881 -10 163
5 112 26 -86z m-1177 -220 c18 -9 70 -47 117 -84 47 -37 177 -135 290 -219
113 -83 245 -184 295 -224 49 -39 130 -103 180 -141 109 -82 181 -151 202
-190 22 -42 32 -81 24 -94 -7 -12 -27 -1 -121 69 -30 22 -100 71 -155 107
-152 100 -313 222 -432 325 -99 86 -248 211 -357 301 -58 47 -86 90 -86 134 0
37 1 37 43 16z"/>
<path d="M2635 9936 c-39 -18 -57 -49 -57 -100 0 -61 29 -121 77 -164 23 -20
49 -51 59 -69 20 -40 92 -328 101 -408 4 -33 14 -103 22 -155 8 -52 16 -140
17 -195 2 -55 11 -127 19 -160 9 -33 21 -100 27 -150 6 -49 15 -112 21 -140
32 -166 39 -454 12 -510 -9 -19 -21 -35 -25 -35 -5 0 -20 -11 -33 -25 -37 -37
-34 -88 8 -130 108 -108 344 -45 437 118 29 51 30 54 30 202 -1 304 -36 666
-90 927 -5 26 -14 132 -20 235 -11 193 -43 396 -79 498 -23 64 -71 136 -109
163 -125 89 -330 137 -417 98z m245 -147 c98 -46 129 -74 162 -147 43 -94 67
-220 78 -405 9 -158 51 -498 70 -566 21 -75 58 -701 44 -757 -17 -72 -122
-150 -194 -142 l-30 3 35 50 c19 28 35 61 35 75 4 168 -13 330 -66 653 -13 81
-33 228 -44 325 -11 97 -25 202 -30 232 -5 30 -15 98 -21 150 -15 131 -70 343
-108 418 -17 34 -47 80 -66 101 -19 21 -31 41 -27 45 13 14 96 -4 162 -35z"/>
<path d="M2971 7081 c-28 -28 -28 -93 -1 -163 12 -29 40 -139 65 -243 35 -154
47 -235 65 -425 11 -129 25 -255 31 -280 11 -49 43 -265 59 -400 10 -80 29
-344 35 -475 1 -33 10 -85 19 -115 19 -67 53 -277 61 -385 4 -44 15 -116 25
-160 42 -176 102 -1153 80 -1295 -13 -83 -12 -184 2 -198 21 -21 108 -14 166
13 51 24 55 28 97 118 62 131 70 175 56 317 -7 64 -16 191 -21 281 -15 266
-29 414 -55 584 -14 88 -29 250 -35 360 -23 474 -42 747 -71 1005 -16 151 -32
281 -34 287 -2 7 -9 61 -15 120 -5 60 -15 137 -20 173 -6 36 -12 142 -14 235
-9 349 -27 414 -155 556 -61 68 -134 101 -237 107 -73 4 -84 2 -103 -17z m240
-167 c27 -26 64 -72 81 -103 29 -50 34 -70 45 -186 6 -71 12 -184 13 -249 0
-66 7 -158 15 -205 8 -47 27 -178 41 -291 14 -113 30 -223 35 -245 5 -22 16
-151 24 -286 8 -135 19 -275 25 -310 5 -35 13 -167 16 -294 5 -229 12 -318 39
-490 8 -49 17 -128 19 -175 3 -47 10 -126 16 -175 13 -115 30 -438 30 -581 0
-122 -14 -180 -56 -229 -18 -21 -23 -24 -18 -10 4 11 6 29 4 40 -1 11 -4 81
-5 155 -2 74 -8 173 -15 220 -6 47 -9 120 -6 162 3 45 -3 156 -14 265 -10 103
-24 238 -30 298 -6 61 -22 162 -35 225 -14 63 -29 169 -36 235 -6 66 -17 156
-26 200 -8 44 -21 115 -28 157 -8 42 -19 159 -25 260 -6 101 -17 242 -25 313
-8 72 -22 195 -30 275 -9 80 -21 154 -26 165 -12 27 -29 164 -39 322 -4 72
-10 135 -13 140 -11 18 -88 415 -83 428 11 30 56 16 107 -31z m-101 -234 c0
-5 -2 -10 -4 -10 -3 0 -8 5 -11 10 -3 6 -1 10 4 10 6 0 11 -4 11 -10z"/>
<path d="M6765 1955 c-71 -16 -185 -62 -269 -109 -34 -19 -92 -43 -129 -55
-38 -11 -83 -28 -101 -36 -54 -26 -71 -96 -27 -110 41 -13 187 33 286 90 59
34 202 90 265 105 63 14 101 32 119 54 11 13 11 22 1 46 -11 26 -17 30 -49 29
-20 -1 -63 -7 -96 -14z"/>
<path d="M5840 1571 c-14 -5 -101 -46 -195 -93 -93 -46 -199 -92 -235 -102
-113 -31 -164 -80 -129 -122 29 -35 130 -7 349 96 80 38 164 73 188 80 47 12
112 70 112 100 0 19 -35 51 -55 49 -5 0 -21 -4 -35 -8z"/>
<path d="M4910 1156 c-19 -7 -71 -31 -115 -53 -85 -42 -176 -76 -316 -117 -94
-28 -122 -50 -122 -97 0 -38 18 -51 60 -45 47 7 317 112 393 152 36 20 94 46
130 60 71 27 100 49 100 74 0 40 -59 52 -130 26z"/>
<path d="M3800 701 c-25 -11 -79 -37 -120 -59 -41 -22 -112 -52 -157 -67 -45
-14 -93 -35 -107 -46 -34 -27 -34 -66 -1 -81 35 -16 187 35 345 115 69 35 135
66 148 70 20 5 23 11 20 44 -3 37 -4 38 -43 40 -22 1 -60 -6 -85 -16z"/>
</g>
</svg>
