<?xml version="1.0" encoding="UTF-8" standalone="no"?>
<!-- Generator: Adobe Illustrator 16.0.0, SVG Export Plug-In . SVG Version: 6.00 Build 0)  -->

<svg
   xmlns:dc="http://purl.org/dc/elements/1.1/"
   xmlns:cc="http://creativecommons.org/ns#"
   xmlns:rdf="http://www.w3.org/1999/02/22-rdf-syntax-ns#"
   xmlns:svg="http://www.w3.org/2000/svg"
   xmlns="http://www.w3.org/2000/svg"
   xmlns:sodipodi="http://sodipodi.sourceforge.net/DTD/sodipodi-0.dtd"
   xmlns:inkscape="http://www.inkscape.org/namespaces/inkscape"
   version="1.1"
   id="Capa_1"
   x="0px"
   y="0px"
   width="659.48901"
   height="635.47699"
   viewBox="0 0 659.48902 635.477"
   xml:space="preserve"
   sodipodi:docname="outFridge.svg"
   inkscape:version="0.92.4 (f8dce91, 2019-08-02)"
   inkscape:export-filename="/home/christophe/dev/ReactNative/FrigoStock/assets/outFridge.png"
   inkscape:export-xdpi="19.940928"
   inkscape:export-ydpi="19.940928"><metadata
   id="metadata49"><rdf:RDF><cc:Work
       rdf:about=""><dc:format>image/svg+xml</dc:format><dc:type
         rdf:resource="http://purl.org/dc/dcmitype/StillImage" /><dc:title /></cc:Work></rdf:RDF></metadata><defs
   id="defs47" /><sodipodi:namedview
   pagecolor="#ffffff"
   bordercolor="#666666"
   borderopacity="1"
   objecttolerance="10"
   gridtolerance="10"
   guidetolerance="10"
   inkscape:pageopacity="0"
   inkscape:pageshadow="2"
   inkscape:window-width="1301"
   inkscape:window-height="714"
   id="namedview45"
   showgrid="false"
   inkscape:zoom="0.26260148"
   inkscape:cx="-544.14766"
   inkscape:cy="268.21501"
   inkscape:window-x="65"
   inkscape:window-y="1106"
   inkscape:window-maximized="1"
   inkscape:current-layer="Capa_1" />
<g
   id="g12"
   transform="translate(-91.459)">
	<g
   id="g10">
		<path
   d="m 513.804,570.147 c 0,19.138 -17.223,34.658 -38.432,34.658 H 160.663 c -21.238,0 -38.465,-15.53 -38.465,-34.658 V 273.949 h 391.596 v 296.199 h 0.01 z M 91.469,243.798 v 350.641 c 0,22.678 19.916,41.038 44.441,41.038 h 363.667 c 24.524,0 44.44,-18.36 44.44,-41.038 V 243.798 Z"
   id="path2"
   inkscape:connector-curvature="0" />
		<path
   d="M 514.436,181.036 H 121.041 V 64.508 c 0,-18.56 17.31,-33.608 38.64,-33.608 H 475.79 c 21.336,0 38.646,15.049 38.646,33.608 z M 499.558,0 H 135.9 C 111.365,0 91.459,21.341 91.459,47.66 V 212.928 H 543.998 V 47.65 C 543.998,21.331 524.082,0 499.558,0 Z"
   id="path4"
   inkscape:connector-curvature="0" />
		<path
   d="m 197.32,138.516 c 0,7.697 -6.9,13.921 -15.423,13.921 v 0 c -8.504,0 -15.413,-6.224 -15.413,-13.921 V 76.051 c 0,-7.688 6.89,-13.911 15.413,-13.911 v 0 c 8.514,0 15.423,6.224 15.423,13.911 z"
   id="path6"
   inkscape:connector-curvature="0" />
		<path
   d="m 197.32,420.993 c 0,10.162 -6.9,18.457 -15.423,18.457 v 0 c -8.504,0 -15.413,-8.266 -15.413,-18.457 v -82.697 c 0,-10.172 6.89,-18.447 15.413,-18.447 v 0 c 8.514,0 15.423,8.256 15.423,18.447 z"
   id="path8"
   inkscape:connector-curvature="0" />
	</g>
</g>
<g
   id="g14"
   transform="translate(-91.459)">
</g>
<g
   id="g16"
   transform="translate(-91.459)">
</g>
<g
   id="g18"
   transform="translate(-91.459)">
</g>
<g
   id="g20"
   transform="translate(-91.459)">
</g>
<g
   id="g22"
   transform="translate(-91.459)">
</g>
<g
   id="g24"
   transform="translate(-91.459)">
</g>
<g
   id="g26"
   transform="translate(-91.459)">
</g>
<g
   id="g28"
   transform="translate(-91.459)">
</g>
<g
   id="g30"
   transform="translate(-91.459)">
</g>
<g
   id="g32"
   transform="translate(-91.459)">
</g>
<g
   id="g34"
   transform="translate(-91.459)">
</g>
<g
   id="g36"
   transform="translate(-91.459)">
</g>
<g
   id="g38"
   transform="translate(-91.459)">
</g>
<g
   id="g40"
   transform="translate(-91.459)">
</g>
<g
   id="g42"
   transform="translate(-91.459)">
</g>
<path
   style="fill:#0d47a1;fill-opacity:1;stroke:#000000;stroke-width:1px;stroke-linecap:butt;stroke-linejoin:miter;stroke-opacity:1"
   d="m 166.5365,348.92111 c 0,0 115.06298,-113.84942 187.54654,-157.08213 72.48357,-43.23272 195.16264,-63.78487 210.39485,-59.97681 15.23221,3.80805 -92.34525,-67.592921 -92.34525,-67.592921 l 72.35298,-5.712077 114.24155,93.297268 -100.91337,93.29726 -59.97681,4.76006 71.40097,-79.01707 c 0,0 -111.10292,29.01464 -176.12239,68.54493 -65.01947,39.53029 -180.88245,181.83447 -180.88245,181.83447 z"
   id="path3754"
   inkscape:connector-curvature="0"
   sodipodi:nodetypes="czscccccczcc"
   inkscape:export-xdpi="31.118956"
   inkscape:export-ydpi="31.118956" /></svg>